<svg xmlns="http://www.w3.org/2000/svg" viewBox="0 0 1200 360" width="1200" height="360">
  <title>sim-skills — teach your agent to drive every engineering tool</title>
  <defs>
    <linearGradient id="bgS" x1="0" y1="0" x2="1" y2="1">
      <stop offset="0"    stop-color="#0b1220"/>
      <stop offset="0.55" stop-color="#111a35"/>
      <stop offset="1"    stop-color="#1a1245"/>
    </linearGradient>
    <linearGradient id="brandS" x1="0" y1="0" x2="1" y2="0">
      <stop offset="0" stop-color="#60a5fa"/>
      <stop offset="1" stop-color="#c084fc"/>
    </linearGradient>
    <radialGradient id="glowS" cx="0.5" cy="0.5" r="0.5">
      <stop offset="0" stop-color="#c084fc" stop-opacity="0.35"/>
      <stop offset="1" stop-color="#c084fc" stop-opacity="0"/>
    </radialGradient>
  </defs>

  <rect width="1200" height="360" fill="url(#bgS)"/>

  <!-- grid backdrop to match sim-cli banner -->
  <g stroke="#1f2a44" stroke-width="1">
    <path d="M0 60 H1200 M0 120 H1200 M0 180 H1200 M0 240 H1200 M0 300 H1200"/>
    <path d="M120 0 V360 M240 0 V360 M360 0 V360 M480 0 V360 M600 0 V360 M720 0 V360 M840 0 V360 M960 0 V360 M1080 0 V360"/>
  </g>

  <!-- right glow (sim-cli banner has left glow — mirror it here) -->
  <circle cx="980" cy="180" r="220" fill="url(#glowS)"/>

  <!-- wordmark on the LEFT (sim-cli has it in the middle; mirror to differentiate) -->
  <g font-family="ui-sans-serif, system-ui, -apple-system, Segoe UI, Roboto, sans-serif">
    <text x="60" y="130" font-size="68" font-weight="800" fill="url(#brandS)" letter-spacing="-1.5">sim-skills</text>
    <text x="60" y="170" font-size="22" font-weight="600" fill="#e2e8f0">Shared protocols for sim agents.</text>
    <text x="60" y="200" font-size="15" font-weight="400" fill="#94a3b8">Runtime contracts. Tool APIs. Agent discipline.</text>
    <text x="60" y="220" font-size="15" font-weight="400" fill="#94a3b8">Pairs with</text>
    <text x="135" y="220" font-size="15" font-weight="700" fill="#93c5fd">sim-cli</text>
    <text x="182" y="220" font-size="15" font-weight="400" fill="#94a3b8">— the runtime opens the door,</text>
    <text x="60" y="240" font-size="15" font-weight="400" fill="#94a3b8">the skills walk the agent through it.</text>

    <!-- chiplet row: "what's inside" -->
    <g font-size="13" font-weight="600">
      <rect x="60"  y="272" width="78"  height="26" rx="13" fill="#1e293b" stroke="#334155"/>
      <text x="99"  y="290" text-anchor="middle" fill="#93c5fd">protocol</text>
      <rect x="146" y="272" width="90"  height="26" rx="13" fill="#1e293b" stroke="#334155"/>
      <text x="191" y="290" text-anchor="middle" fill="#c4b5fd">workflows</text>
      <rect x="244" y="272" width="84"  height="26" rx="13" fill="#1e293b" stroke="#334155"/>
      <text x="286" y="290" text-anchor="middle" fill="#86efac">snippets</text>
      <rect x="336" y="272" width="90"  height="26" rx="13" fill="#1e293b" stroke="#334155"/>
      <text x="381" y="290" text-anchor="middle" fill="#fcd34d">reference</text>
      <rect x="434" y="272" width="80"  height="26" rx="13" fill="#1e293b" stroke="#334155"/>
      <text x="474" y="290" text-anchor="middle" fill="#fda4af">tests</text>
    </g>
  </g>

  <!-- Shared skill cards on the right side -->
  <g font-family="ui-sans-serif, system-ui, -apple-system, Segoe UI, Roboto, sans-serif" font-size="13" font-weight="600">
    <g transform="translate(600,56)">
      <rect width="180" height="82" rx="10" fill="#111a35" stroke="#334155"/>
      <text x="14" y="26" fill="#93c5fd" font-size="15">sim-cli</text>
      <text x="14" y="46" fill="#94a3b8" font-size="11" font-weight="400">runtime contract</text>
      <text x="14" y="62" fill="#94a3b8" font-size="11" font-weight="400">connect · exec · inspect</text>
      <circle cx="162" cy="22" r="4" fill="#22c55e"/>
    </g>
    <g transform="translate(800,56)">
      <rect width="180" height="82" rx="10" fill="#111a35" stroke="#334155"/>
      <text x="14" y="26" fill="#c4b5fd" font-size="15">sim-cli/gui</text>
      <text x="14" y="46" fill="#94a3b8" font-size="11" font-weight="400">shared GUI tool</text>
      <text x="14" y="62" fill="#94a3b8" font-size="11" font-weight="400">find · click · screenshot</text>
      <circle cx="162" cy="22" r="4" fill="#22c55e"/>
    </g>
    <g transform="translate(1000,56)">
      <rect width="180" height="82" rx="10" fill="#111a35" stroke="#334155"/>
      <text x="14" y="26" fill="#86efac" font-size="15">acceptance</text>
      <text x="14" y="46" fill="#94a3b8" font-size="11" font-weight="400">outcome based</text>
      <text x="14" y="62" fill="#94a3b8" font-size="11" font-weight="400">not just exit codes</text>
      <circle cx="162" cy="22" r="4" fill="#22c55e"/>
    </g>
    <g transform="translate(600,152)">
      <rect width="180" height="82" rx="10" fill="#111a35" stroke="#334155"/>
      <text x="14" y="26" fill="#fcd34d" font-size="15">inputs</text>
      <text x="14" y="46" fill="#94a3b8" font-size="11" font-weight="400">A/B/C categories</text>
      <text x="14" y="62" fill="#94a3b8" font-size="11" font-weight="400">ask · default · derive</text>
      <circle cx="162" cy="22" r="4" fill="#22c55e"/>
    </g>
    <g transform="translate(800,152)">
      <rect width="180" height="82" rx="10" fill="#111a35" stroke="#334155"/>
      <text x="14" y="26" fill="#7dd3fc" font-size="15">version probe</text>
      <text x="14" y="46" fill="#94a3b8" font-size="11" font-weight="400">Step-0 discipline</text>
      <text x="14" y="62" fill="#94a3b8" font-size="11" font-weight="400">profile-aware guidance</text>
      <circle cx="162" cy="22" r="4" fill="#22c55e"/>
    </g>
    <g transform="translate(1000,152)">
      <rect width="180" height="82" rx="10" fill="#111a35" stroke="#334155"/>
      <text x="14" y="26" fill="#fda4af" font-size="15">escalation</text>
      <text x="14" y="46" fill="#94a3b8" font-size="11" font-weight="400">stop on drift</text>
      <text x="14" y="62" fill="#94a3b8" font-size="11" font-weight="400">report, then decide</text>
      <circle cx="162" cy="22" r="4" fill="#22c55e"/>
    </g>
    <g transform="translate(800,248)">
      <rect width="380" height="64" rx="10" fill="#0b1220" stroke="#475569" stroke-dasharray="4 4"/>
      <text x="190" y="30" text-anchor="middle" fill="#cbd5e1" font-size="14">plugin skills live with plugins</text>
      <text x="190" y="50" text-anchor="middle" fill="#94a3b8" font-size="11" font-weight="400">this repo keeps the shared contract</text>
    </g>
  </g>
</svg>
